<!-- Generated by IcoMoon.io -->
<svg version="1.1" xmlns="http://www.w3.org/2000/svg" width="2414" height="1024" viewBox="0 0 2414 1024">
<title>facebook-11</title>
<g id="icomoon-ignore">
</g>
<path fill="#f4f4fd" d="M36.571 4.571h2340.571c17.673 0 32 14.327 32 32v950.857c0 17.673-14.327 32-32 32h-2340.571c-17.673 0-32-14.327-32-32v-950.857c0-17.673 14.327-32 32-32z"></path>
<path fill="#4d5ae5" d="M1498.953 302.154c-1.152-3.521-4.197-6.095-7.872-6.632l-34.926-5.081-15.634-31.656c-3.282-6.672-14.217-6.672-17.49 0l-15.634 31.656-34.935 5.083c-3.675 0.536-6.72 3.101-7.881 6.631-1.134 3.531-0.192 7.412 2.469 9.997l25.289 24.645-5.97 34.797c-0.622 3.657 0.878 7.354 3.877 9.539 3.035 2.204 6.994 2.477 10.277 0.741l31.25-16.433 31.25 16.433c1.417 0.751 2.99 1.121 4.544 1.121 2.011 0 4.032-0.624 5.733-1.862 2.999-2.184 4.507-5.882 3.867-9.539l-5.961-34.797 25.289-24.645c2.642-2.594 3.602-6.466 2.459-9.997zM1453.915 326.418c-2.286 2.234-3.346 5.471-2.798 8.632l3.493 20.372-18.295-9.616c-1.426-0.752-2.981-1.122-4.544-1.122s-3.109 0.37-4.544 1.122l-18.295 9.616 3.483-20.372c0.549-3.161-0.503-6.388-2.798-8.632l-14.811-14.433 20.462-2.975c3.182-0.458 5.915-2.457 7.342-5.335l9.152-18.53 9.143 18.53c1.426 2.876 4.169 4.877 7.351 5.335l20.453 2.975-14.793 14.433z"></path>
<path fill="#4d5ae5" d="M1392.155 594.692h-19.502v19.505h19.502v-19.505z"></path>
<path fill="#4d5ae5" d="M1392.155 633.702h-19.502v19.505h19.502v-19.505z"></path>
<path fill="#4d5ae5" d="M1411.657 614.197h-19.502v19.505h19.502v-19.505z"></path>
<path fill="#4d5ae5" d="M1372.654 614.197h-19.511v19.505h19.511v-19.505z"></path>
<path fill="#4d5ae5" d="M1323.886 701.97h-19.502v19.504h19.502v-19.504z"></path>
<path fill="#4d5ae5" d="M1323.886 740.979h-19.502v19.506h19.502v-19.506z"></path>
<path fill="#4d5ae5" d="M1343.397 721.475h-19.511v19.506h19.511v-19.506z"></path>
<path fill="#4d5ae5" d="M1304.384 721.475h-19.511v19.506h19.511v-19.506z"></path>
<path fill="#4d5ae5" d="M1206.857 662.96h-19.502v19.505h19.502v-19.505z"></path>
<path fill="#4d5ae5" d="M1206.857 701.97h-19.502v19.504h19.502v-19.504z"></path>
<path fill="#4d5ae5" d="M1226.359 682.464h-19.502v19.505h19.502v-19.505z"></path>
<path fill="#4d5ae5" d="M1187.355 682.464h-19.511v19.505h19.511v-19.505z"></path>
<path fill="#4d5ae5" d="M1021.559 331.373h-19.502v19.505h19.502v-19.505z"></path>
<path fill="#4d5ae5" d="M1021.559 370.384h-19.502v19.505h19.502v-19.505z"></path>
<path fill="#4d5ae5" d="M1041.061 350.879h-19.502v19.505h19.502v-19.505z"></path>
<path fill="#4d5ae5" d="M1002.057 350.879h-19.511v19.505h19.511v-19.505z"></path>
<path fill="#2e2f42" d="M1366.217 478.344c-5.257-7.090-12.974-11.653-21.733-12.883-8.795-1.248-17.481 1.062-24.503 6.437l-22.894 17.554-34.706 25.913-24.823-9.889c44.27-19.866 75.218-64.152 75.218-115.568 0-69.906-57.097-126.783-127.287-126.783s-127.296 56.877-127.296 126.783c0 25.338 7.579 48.899 20.489 68.725l-50.542-0.439c-0.027 0-0.055 0-0.091 0-0.155 0-0.283 0.078-0.43 0.089-0.96 0.038-1.911 0.234-2.834 0.565-0.238 0.089-0.475 0.137-0.704 0.244-0.11 0.048-0.229 0.058-0.347 0.116l-59.118 29.189c-0.009 0-0.018 0-0.018 0.009l-34.624 16.649c-0.384 0.165-0.768 0.389-1.152 0.644-13.797 9.186-18.501 27.228-10.944 41.974 4.032 7.841 10.889 13.616 19.31 16.258 3.246 1.013 6.565 1.511 9.865 1.511 5.294 0 10.542-1.296 15.342-3.861l25.381-13.498 41.399-21.378 24.814-0.146-99.511 99.028c-0.009 0.010-0.018 0.010-0.027 0.019l-24.475 24.381c-5.787 5.755-8.969 13.39-8.969 21.534 0 8.133 3.182 15.789 8.969 21.553 5.934 5.91 13.751 8.874 21.559 8.874 7.826 0 15.625-2.964 21.586-8.874l24.027-23.933 31.835-23.767 16.466 16.403-32.21 32.076c-0.009 0.011-0.018 0.011-0.027 0.020l-24.485 24.38c-5.778 5.755-8.96 13.39-8.96 21.534 0 8.133 3.182 15.789 8.96 21.553 5.943 5.91 13.76 8.875 21.577 8.875 7.808 0 15.634-2.965 21.577-8.875l63.671-63.39c0.009-0.011 0.009-0.020 0.018-0.030l18.459-18.286-0.073-0.069c0.119-0.117 0.283-0.157 0.402-0.283l94.464-103.464 63.47 9.030c0.457 0.069 0.914 0.098 1.371 0.098 1.189 0 2.322-0.283 3.429-0.702 0.32-0.116 0.603-0.273 0.905-0.429 0.347-0.176 0.722-0.272 1.051-0.496l58.761-39.010c0.219-0.146 0.329-0.381 0.539-0.537 0.229-0.185 0.521-0.262 0.741-0.468l23.25-21.777c12.096-11.335 13.76-29.904 3.877-43.186zM953.243 544.368c-3.173 1.697-6.766 2.038-10.213 0.946-3.41-1.063-6.181-3.395-7.799-6.544-2.944-5.734-1.243-12.718 3.913-16.491l24.027-11.557 5.778 16.901 2.432 7.099-18.139 9.646zM1017.189 510.948l-28.306 14.629-8.027-23.465 37.056-18.297-0.722 27.133zM1293.294 389.888c0 16.794-4.005 32.633-10.953 46.802l-76.462-34.728c-0.795-10.484-6.235-19.661-14.409-25.377l26.77-88.874c43.474 13.829 75.054 54.39 75.054 102.177zM1077.723 389.888c0-59.149 48.357-107.278 107.785-107.278 4.626 0 9.143 0.389 13.623 0.955l-26.185 86.925c-0.347-0.010-0.686-0.108-1.042-0.108-18.88 0-34.24 15.312-34.24 34.135 0 18.821 15.36 34.134 34.24 34.134 12.699 0 23.671-7.012 29.586-17.273l70.629 32.087c-19.648 26.448-51.099 43.701-86.61 43.701-59.429 0-107.785-48.129-107.785-107.279zM1186.642 404.517c0 8.065-6.619 14.629-14.738 14.629-8.128 0-14.738-6.564-14.738-14.629s6.61-14.629 14.738-14.629c8.119 0 14.738 6.564 14.738 14.629zM959.36 679.246c-4.325 4.282-11.319 4.272-15.625 0.010-2.075-2.077-3.218-4.816-3.218-7.733 0-2.907 1.143-5.648 3.218-7.705l17.591-17.526 15.561 15.497-17.527 17.456zM1018.121 747.515c-4.315 4.281-11.319 4.292-15.625 0.010-2.085-2.077-3.218-4.817-3.218-7.734 0-2.907 1.134-5.647 3.218-7.704l17.6-17.535 15.57 15.497-17.545 17.466zM1081.792 684.084c-0.009 0.009-0.018 0.009-0.027 0.019l-32.274 32.183-15.579-15.497 32.247-32.095c0 0 0 0 0-0.009 0.009-0.010 0.018-0.010 0.027-0.019 0.731-0.731 1.189-1.609 1.637-2.477 0.128-0.254 0.375-0.469 0.485-0.731 0.302-0.751 0.347-1.56 0.466-2.352 0.055-0.449 0.256-0.867 0.256-1.327 0-0.654-0.238-1.286-0.375-1.931-0.119-0.585-0.119-1.181-0.338-1.745-0.375-0.917-1.006-1.726-1.673-2.517-0.183-0.215-0.247-0.487-0.457-0.692 0 0 0 0-0.009 0-0.009-0.009-0.009-0.030-0.018-0.039l-29.385-29.257c-0.311-0.312-0.713-0.439-1.061-0.702-0.521-0.4-1.015-0.77-1.591-1.053-0.558-0.273-1.125-0.439-1.71-0.595-0.622-0.176-1.225-0.313-1.883-0.361-0.594-0.039-1.152 0.019-1.746 0.088-0.649 0.078-1.262 0.165-1.902 0.37-0.613 0.196-1.152 0.497-1.719 0.819-0.366 0.205-0.777 0.273-1.115 0.527l-32.43 24.207-16.466-16.404 43.867-43.632 79.735 78.421-16.96 16.804zM1206.473 555.779c-0.274-0.038-0.539 0.069-0.823 0.049-0.713-0.039-1.399 0.010-2.112 0.127-0.549 0.097-1.079 0.204-1.609 0.389-0.622 0.215-1.189 0.507-1.765 0.859-0.549 0.331-1.042 0.682-1.518 1.121-0.238 0.205-0.521 0.303-0.731 0.536l-85.915 94.093-79.141-77.835 51.803-51.533c3.822-3.803 3.84-9.977 0.037-13.8-1.92-1.921-4.453-2.867-6.976-2.857v-0.009l-40.567 0.244 0.503-29.394 56.759 0.488c23.131 23.66 55.397 38.416 91.090 38.416 8 0 15.799-0.828 23.397-2.244 0.731 0.585 1.454 1.181 2.368 1.552l44.059 17.554 2.789 13.868 3.264 16.188-54.912-7.812zM1280.375 559.036l-5.733-28.487 26.45-19.749 6.93 9.187 10.386 13.79-38.034 25.26zM1349.010 507.269l-15.323 14.356-17.024-22.607 15.205-11.653c2.834-2.184 6.409-3.072 9.92-2.614 3.538 0.497 6.656 2.341 8.786 5.198 3.959 5.335 3.282 12.776-1.563 17.32z"></path>
<path fill="#2e2f42" d="M1163.008 558.52l-39.186-39.010c-3.794-3.793-9.957-3.793-13.76 0l-39.177 39.010c-1.829 1.843-2.862 4.32-2.862 6.914s1.024 5.082 2.862 6.915l39.177 39.010c1.902 1.892 4.398 2.838 6.885 2.838s4.983-0.946 6.875-2.838l39.186-39.010c1.838-1.833 2.88-4.32 2.88-6.915s-1.033-5.081-2.88-6.914zM1116.946 590.683l-25.353-25.25 25.353-25.249 25.371 25.249-25.371 25.25z"></path>
<path fill="#2e2f42" d="M1228.151 312.151l-4.718 18.94c1.298 0.322 31.781 8.261 31.781 39.293h19.502c0-36.885-30.455-54.225-46.565-58.234z"></path>
<path fill="#2e2f42" d="M1274.715 389.888h-19.502v19.506h19.502v-19.506z"></path>
</svg>
