<!-- Generated by IcoMoon.io -->
<svg version="1.1" xmlns="http://www.w3.org/2000/svg" width="2414" height="1024" viewBox="0 0 2414 1024">
<title>facebook-11</title>
<g id="icomoon-ignore">
</g>
<path fill="#f4f4fd" d="M36.571 4.571h2340.571c17.673 0 32 14.327 32 32v950.857c0 17.673-14.327 32-32 32h-2340.571c-17.673 0-32-14.327-32-32v-950.857c0-17.673 14.327-32 32-32z"></path>
<path fill="#4d5ae5" d="M1187.209 493.067h19.493v87.726h-19.493v-87.726z"></path>
<path fill="#4d5ae5" d="M1265.189 532.056h19.493v48.737h-19.493v-48.737z"></path>
<path fill="#4d5ae5" d="M1109.23 561.298h19.493v19.494h-19.493v-19.494z"></path>
<path fill="#4d5ae5" d="M1050.752 551.55h19.493v29.242h-19.493v-29.242z"></path>
<path fill="#2e2f42" d="M943.525 736.749h467.877c16.146 0 29.239-13.093 29.239-29.242v-38.989c0-16.149-13.093-29.242-29.239-29.242h-9.755v-243.077l55.369-52.449c12.855 6.334 28.407 2.489 36.818-9.119 8.411-11.603 7.232-27.581-2.789-37.823-10.030-10.243-25.975-11.771-37.76-3.617-11.785 8.157-15.973 23.621-9.92 36.609l-41.719 39.547v-22.489c0-16.149-13.093-29.242-29.239-29.242h-389.888c-16.155 0-29.248 13.093-29.248 29.242v292.419h-9.746c-16.146 0-29.239 13.093-29.239 29.242v38.989c0 16.149 13.093 29.242 29.239 29.242zM1469.879 307.869c5.385 0 9.746 4.364 9.746 9.747s-4.361 9.747-9.746 9.747c-5.385 0-9.746-4.365-9.746-9.747s4.361-9.747 9.746-9.747zM972.773 346.858c0-5.382 4.361-9.747 9.746-9.747h389.888c5.385 0 9.746 4.365 9.746 9.747v40.935l-19.493 18.524v-39.965c0-5.382-4.361-9.747-9.746-9.747h-350.903c-5.385 0-9.746 4.365-9.746 9.747v243.682c0 5.383 4.361 9.747 9.746 9.747h350.903c5.385 0 9.746-4.364 9.746-9.747v-176.902l19.493-18.471v224.616h-409.381v-292.419zM1060.498 473.573c-13.193-0.037-24.768 8.748-28.279 21.46s1.92 26.196 13.266 32.926c11.337 6.729 25.783 5.040 35.255-4.132l33.883 17.001c3.931 1.97 8.713 1.047 11.639-2.242l72.018-81.029 70.802 53.053c3.803 2.846 9.106 2.542 12.544-0.719l61.541-58.288v148.684h-331.41v-224.187h331.41v48.646l-68.965 65.308-71.397-53.524c-4.059-3.036-9.765-2.466-13.129 1.318l-73.015 82.152-27.301-13.65c0.201-1.17 0.329-2.351 0.375-3.536 0-16.148-13.093-29.242-29.239-29.242zM1070.245 502.814c0 5.383-4.37 9.748-9.746 9.748-5.385 0-9.746-4.365-9.746-9.748s4.361-9.747 9.746-9.747c5.376 0 9.746 4.365 9.746 9.747zM1128.722 658.771h97.472v9.747c0 5.382-4.361 9.747-9.746 9.747h-77.979c-5.376 0-9.746-4.365-9.746-9.747v-9.747zM933.778 668.518c0-5.383 4.37-9.747 9.746-9.747h165.705v9.747c0 16.149 13.093 29.242 29.239 29.242h77.979c16.155 0 29.248-13.093 29.248-29.242v-9.747h165.705c5.376 0 9.746 4.364 9.746 9.747v38.989c0 5.383-4.37 9.747-9.746 9.747h-467.877c-5.376 0-9.746-4.364-9.746-9.747v-38.989z"></path>
</svg>
