<!-- Generated by IcoMoon.io -->
<svg version="1.1" xmlns="http://www.w3.org/2000/svg" width="2414" height="1024" viewBox="0 0 2414 1024">
<title>facebook-11</title>
<g id="icomoon-ignore">
</g>
<path fill="#f4f4fd" d="M36.571 4.571h2340.571c17.673 0 32 14.327 32 32v950.857c0 17.673-14.327 32-32 32h-2340.571c-17.673 0-32-14.327-32-32v-950.857c0-17.673 14.327-32 32-32z"></path>
<path fill="#4d5ae5" d="M1187.209 493.074h19.493v87.717h-19.493v-87.717zM1265.189 532.059h19.493v48.731h-19.493v-48.731zM1109.23 561.298h19.493v19.493h-19.493v-19.493zM1050.752 551.552h19.493v29.239h-19.493v-29.239z"></path>
<path fill="#2e2f42" d="M943.525 736.75h467.877c16.148 0 29.239-13.091 29.239-29.239v0-38.994c0-16.148-13.091-29.239-29.239-29.239v0h-9.755v-243.081l55.369-52.443c3.794 1.913 8.27 3.033 13.008 3.033 16.244 0 29.413-13.168 29.413-29.413s-13.168-29.413-29.413-29.413c-16.244 0-29.413 13.168-29.413 29.413 0 4.511 1.016 8.785 2.831 12.606l-0.076-0.178-41.719 39.543v-22.491c0-16.148-13.091-29.239-29.239-29.239h-389.888c-16.153 0-29.248 13.095-29.248 29.248v0 292.407h-9.746c-16.148 0-29.239 13.091-29.239 29.239 0 0.003 0 0.006 0 0.010v0 38.994c0 16.148 13.091 29.239 29.239 29.239v0zM1469.879 307.867c5.383 0 9.746 4.364 9.746 9.746s-4.364 9.746-9.746 9.746v0c-5.383 0-9.746-4.364-9.746-9.746s4.364-9.746 9.746-9.746v0zM972.773 346.862c0-5.394 4.361-9.755 9.746-9.755h389.888c5.385 0 9.746 4.37 9.746 9.755v40.933l-19.493 18.523v-39.963c0-5.385-4.361-9.746-9.746-9.746h-350.903c-5.385 0-9.746 4.361-9.746 9.746v243.675c0 5.394 4.361 9.755 9.746 9.755h350.903c5.385 0 9.746-4.37 9.746-9.755v-176.896l19.493-18.469v224.603h-409.381v-292.407zM1060.498 473.573c-0.024 0-0.053 0-0.082 0-16.148 0-29.239 13.091-29.239 29.239s13.091 29.239 29.239 29.239c7.901 0 15.071-3.134 20.333-8.227l-0.008 0.008 33.883 17.006c3.931 1.966 8.713 1.042 11.639-2.249l72.018-81.033 70.802 53.056c3.803 2.843 9.106 2.542 12.544-0.722l61.541-58.286v148.681h-331.41v-224.183h331.41v48.64l-68.965 65.317-71.397-53.531c-1.608-1.215-3.64-1.946-5.844-1.946-2.893 0-5.492 1.261-7.277 3.262l-0.008 0.010-73.015 82.149-27.301-13.65c0.201-1.17 0.329-2.35 0.375-3.538 0-16.148-13.091-29.239-29.239-29.239v0zM1070.245 502.811c0.003 0.089 0.005 0.194 0.005 0.299 0 5.388-4.368 9.755-9.755 9.755s-9.755-4.368-9.755-9.755c0-0.105 0.002-0.21 0.005-0.314v0.015c0.166-5.258 4.468-9.457 9.751-9.457s9.585 4.199 9.75 9.442v0.015zM1128.722 658.77h97.472v9.746c0 5.385-4.361 9.746-9.746 9.746h-77.979c-5.381-0.005-9.741-4.366-9.746-9.746v0-9.746zM933.778 668.517c0-5.385 4.37-9.746 9.746-9.746h165.705v9.746c0 16.148 13.091 29.239 29.239 29.239v0h77.979c16.15 0 29.243-13.090 29.248-29.238v0-9.746h165.705c5.376 0 9.746 4.361 9.746 9.746v38.994c0 5.376-4.37 9.746-9.746 9.746h-467.877c-5.381-0.005-9.741-4.366-9.746-9.746v0-38.994z"></path>
</svg>
