<!-- Generated by IcoMoon.io -->
<svg version="1.1" xmlns="http://www.w3.org/2000/svg" width="2414" height="1024" viewBox="0 0 2414 1024">
<title>facebook-11</title>
<g id="icomoon-ignore">
</g>
<path fill="#f4f4fd" d="M36.571 4.571h2340.571c17.673 0 32 14.327 32 32v950.857c0 17.673-14.327 32-32 32h-2340.571c-17.673 0-32-14.327-32-32v-950.857c0-17.673 14.327-32 32-32z"></path>
<path fill="#2e2f42" d="M1486.565 499.223c-0.027-154.557-125.349-279.825-279.909-279.794s-279.826 125.357-279.799 279.915c0.027 121.745 78.757 229.505 194.734 266.536 1.106 0.348 2.258 0.527 3.41 0.522 2.213-0.005 4.37-0.593 6.263-1.714 2.469-1.46 4.315-3.781 5.184-6.518l70.674-224c19.319-0.098 34.898-15.844 34.798-35.161-0.101-19.322-15.835-34.902-35.163-34.803-5.193 0.022-10.322 1.219-14.994 3.5l-93.367-93.38c-4.635-4.474-12.014-4.344-16.485 0.285-4.37 4.523-4.37 11.684 0 16.206l93.321 93.424c-7.168 14.616-3.072 32.259 9.801 42.223l-67.337 213.446c-133.083-49.022-201.225-196.643-152.201-329.723s196.645-201.223 329.728-152.201c133.074 49.022 201.216 196.647 152.201 329.723-23.954 65.018-73.161 117.598-136.457 145.798l-7.278-34.272c-1.326-6.299-7.515-10.326-13.815-8.991-1.993 0.424-3.831 1.358-5.349 2.71l-70.162 62.639c-4.818 4.281-5.239 11.652-0.96 16.464 1.399 1.563 3.182 2.723 5.184 3.361l89.573 28.59c6.126 1.968 12.699-1.402 14.665-7.536 0.622-1.937 0.731-4 0.311-5.991l-7.15-33.629c103.57-43.665 170.825-145.228 170.578-257.63zM1206.711 487.563c6.437 0 11.666 5.222 11.666 11.66 0 6.442-5.23 11.661-11.666 11.661s-11.657-5.219-11.657-11.661c0-6.437 5.221-11.66 11.657-11.66zM1245.12 759.362l39.936-35.625 11.026 51.938-50.962-16.313z"></path>
<path fill="#4d5ae5" d="M1195.054 277.669v23.322c0 6.442 5.221 11.661 11.657 11.661s11.666-5.219 11.666-11.661v-23.322c0-6.437-5.23-11.661-11.666-11.661s-11.657 5.223-11.657 11.661z"></path>
<path fill="#4d5ae5" d="M985.161 487.562c-6.446 0-11.657 5.223-11.657 11.661 0 6.442 5.211 11.661 11.657 11.661h23.323c6.437 0 11.657-5.219 11.657-11.661 0-6.437-5.221-11.661-11.657-11.661h-23.323z"></path>
<path fill="#4d5ae5" d="M1428.261 510.884c6.446 0 11.666-5.219 11.666-11.661 0-6.437-5.221-11.661-11.666-11.661h-23.323c-6.437 0-11.657 5.223-11.657 11.661 0 6.442 5.221 11.661 11.657 11.661h23.323z"></path>
</svg>
