<!-- Generated by IcoMoon.io -->
<svg version="1.1" xmlns="http://www.w3.org/2000/svg" width="2414" height="1024" viewBox="0 0 2414 1024">
<title>facebook-11</title>
<g id="icomoon-ignore">
</g>
<path fill="#f4f4fd" d="M36.571 4.571h2340.571c17.673 0 32 14.327 32 32v950.857c0 17.673-14.327 32-32 32h-2340.571c-17.673 0-32-14.327-32-32v-950.857c0-17.673 14.327-32 32-32z"></path>
<path fill="#2e2f42" d="M1476.992 623.499l-154.386-155.521 17.134-84.398c4.425 1.726 9.125 2.629 13.87 2.662h0.119c21.797 0.258 39.68-17.207 39.936-39.008 0.265-21.801-17.207-39.684-39.003-39.942-21.806-0.257-39.689 17.207-39.945 39.009-0.055 4.665 0.713 9.302 2.286 13.698l-90.697 11.069-147.95-148.714c-1.81-1.851-4.288-2.905-6.885-2.926-2.56 0.014-5.010 1.032-6.83 2.838l-27.657 27.502c-3.803 3.808-3.803 9.981 0 13.79l14.885 15.097c-57.655 106.019-38.93 237.308 46.071 322.979 0.777 0.746 1.682 1.349 2.67 1.785-0.613 3.301-0.933 6.649-0.951 10.006v113.128h-117.029c-26.917 0.031-48.731 21.845-48.768 48.762v19.504c0 5.386 4.37 9.753 9.755 9.753h448.613c5.385 0 9.746-4.367 9.746-9.753v-19.504c-0.027-26.917-21.842-48.731-48.759-48.762h-117.029v-50.138c18.331 3.845 37.010 5.806 55.744 5.851 44.946-0.048 89.179-11.254 128.731-32.612l14.958 15.048c1.819 1.851 4.297 2.905 6.894 2.926 2.56-0.014 5.010-1.033 6.821-2.838l27.657-27.502c3.813-3.809 3.813-9.982 0-13.79zM1339.977 333.404c7.634-7.597 19.986-7.563 27.584 0.075 7.589 7.637 7.561 19.987-0.082 27.583-3.648 3.636-8.603 5.677-13.76 5.676h-0.055c-10.77-0.056-19.456-8.833-19.401-19.606 0.027-5.157 2.094-10.091 5.751-13.728h-0.037zM1317.019 397.488l-10.944 53.862-21.495-21.621 32.439-32.241zM1305.938 380.997l-35.109 34.904-27.163-27.307 62.272-7.597zM1353.216 746.057c16.155 0 29.257 13.099 29.257 29.257v9.753h-429.102v-9.753c0-16.158 13.093-29.257 29.257-29.257h370.587zM1216.686 707.047v19.505h-97.527v-19.505h97.527zM1119.159 687.543v-74.118c0-23.659 21.879-42.91 48.759-42.91 26.889 0 48.768 19.251 48.768 42.91v74.118h-97.527zM1236.187 656.53v-43.106c0-34.416-30.619-62.415-68.27-62.415-24.338-0.373-47.095 12.016-59.995 32.66-74.194-78.149-90.907-194.655-41.664-290.507l340.151 342.097c-52.526 26.719-112.741 34.242-170.222 21.27zM1442.615 644.027l-385.042-387.306 13.797-13.751 145.097 145.915c0.073 0 0.11 0.127 0.183 0.176l239.808 241.215-13.842 13.751z"></path>
<path fill="#4d5ae5" d="M1168.009 590.019h-0.091c-16.155-0.025-29.275 13.055-29.294 29.213-0.027 16.158 13.056 29.276 29.211 29.301h0.082c16.165 0.025 29.285-13.055 29.303-29.213 0.027-16.158-13.056-29.276-29.211-29.301zM1174.839 626.191c-1.838 1.826-4.325 2.847-6.921 2.838-5.385-0.028-9.728-4.417-9.701-9.803 0.018-2.578 1.051-5.045 2.88-6.864 1.81-1.805 4.261-2.824 6.821-2.838 5.394 0.028 9.737 4.417 9.71 9.803-0.018 2.578-1.051 5.045-2.88 6.864h0.091z"></path>
</svg>
